<?xml version="1.0" encoding="UTF-8"?>
<svg width="1603px" height="490px" viewBox="0 0 1603 490" version="1.1" xmlns="http://www.w3.org/2000/svg" xmlns:xlink="http://www.w3.org/1999/xlink">
    <!-- Generator: Sketch 43.2 (39069) - http://www.bohemiancoding.com/sketch -->
    <title>grailsplusangular</title>
    <desc>Created with Sketch.</desc>
    <defs></defs>
    <g id="Page-1" stroke="none" stroke-width="1" fill="none" fill-rule="evenodd">
        <g id="grailsplusangular" transform="translate(-143.000000, -80.000000)">
            <g id="angular" transform="translate(1289.000000, 80.000000)" fill-rule="nonzero">
                <polygon id="Shape" fill="#DD0031" points="228.046875 0 228.046875 0 228.046875 0 0.0168716755 81.34 34.7969581 382.935 228.046875 490 228.046875 490 228.046875 490 421.296792 382.935 456.076878 81.34"></polygon>
                <polygon id="Shape" fill="#C3002F" points="228.046875 0 228.046875 54.39 228.046875 54.145 228.046875 302.33 228.046875 302.33 228.046875 490 228.046875 490 421.296792 382.935 456.076878 81.34"></polygon>
                <path d="M228.046875,54.145 L85.4975066,373.87 L85.4975066,373.87 L138.647357,373.87 L138.647357,373.87 L167.304189,302.33 L288.299701,302.33 L316.956533,373.87 L316.956533,373.87 L370.106383,373.87 L370.106383,373.87 L228.046875,54.145 L228.046875,54.145 L228.046875,54.145 L228.046875,54.145 L228.046875,54.145 Z M269.685007,258.23 L186.408743,258.23 L228.046875,158.025 L269.685007,258.23 Z" id="Shape" fill="#FFFFFF"></path>
            </g>
            <text id="+" font-family="Futura-Medium, Futura" font-size="500" font-weight="400" fill="#FFFFFF">
                <tspan x="916.203125" y="519">+</tspan>
            </text>
            <g id="grails-cupsonly-logo-white" transform="translate(0.000000, 75.000000)">
                <g id="Shape1" transform="translate(143.000000, 6.000000)" fill="#FFFFFF">
                    <path d="M384.264,485.011 C401.051,482.613 420.236,477.817 429.829,473.021 C439.421,468.224 446.615,461.03 446.615,456.234 C446.615,456.234 444.217,451.438 441.819,446.641 C437.023,439.447 432.227,429.854 420.236,403.475 C415.44,391.484 404.589,360.072 401.051,345.92 C397.386,324.773 397.051,302.254 401.051,281.171 C404.531,268.839 409.314,256.919 417.838,247.597 C427.402,234.945 438.622,222.467 453.81,216.422 C501.094,197.599 556.929,156.469 585.707,110.904 C595.299,94.117 599.876,86.923 603.372,77.3305 C612.023,53.5988 619.66,28.3876 619.28,2.98871 L619.28,0.59059 L355.487,0.59059 L89.295,0.59059 L89.295,5.3868 C88.901,68.2274 126.048,124.868 170.831,166.061 C194.813,187.644 223.59,204.431 257.164,216.422 C269.154,221.218 273.951,223.616 283.543,233.208 C295.534,247.597 305.126,264.384 309.923,283.569 C312.827,311.286 310.654,340.577 302.728,367.503 L297.932,381.892 C295.534,391.484 288.339,405.873 276.349,429.854 C264.358,453.836 264.358,456.234 264.358,458.632 C269.154,473.021 297.932,482.613 341.098,487.409 C350.691,487.409 365.079,487.409 384.264,485.011 L384.264,485.011 Z M182.822,403.475 C199.609,401.077 213.998,396.281 218.794,389.086 L218.794,386.688 L216.396,379.494 C199.609,348.318 190.016,321.939 190.016,295.56 C190.016,281.171 192.415,273.977 197.211,261.986 C204.405,249.995 206.803,246.125 218.794,241.329 C223.59,238.876 229.313,237.95 231.711,236.478 C237.979,234.625 245.173,230.81 245.173,230.81 C245.173,230.81 240.868,229.884 236.016,227.486 C221.628,222.69 216.396,218.82 204.405,211.625 C166.035,190.042 142.054,168.459 118.073,137.284 C110.878,125.293 107.156,119.996 103.684,115.163 L101.286,110.904 C98.888,108.506 2.963,108.506 0.565,110.904 C-1.061,144.478 15.03,174.057 36.536,199.635 C61.661,229.514 82.101,238.005 101.286,242.801 C118.073,247.597 120.471,249.995 127.665,259.588 C132.462,271.578 134.86,278.773 134.86,293.161 C137.258,314.745 130.063,336.328 115.675,367.503 C110.878,377.096 106.082,386.688 106.082,386.688 C106.082,389.086 110.878,393.883 115.675,396.281 C127.665,403.475 161.239,408.271 182.822,403.475 L182.822,403.475 Z M573.716,403.475 C592.901,401.077 604.892,396.281 607.29,389.086 C607.29,386.688 607.29,384.29 600.095,369.901 C585.008,340.118 574.597,304.72 583.308,271.578 C588.287,258.162 594.689,244.182 609.688,241.852 C633.669,234.658 652.854,223.616 676.835,199.635 C691.224,185.246 704.61,160.971 708.369,146.876 C711.382,135.577 715.172,122.066 712.807,110.904 C710.409,108.506 612.086,108.506 609.688,110.904 C609.688,110.904 607.29,113.302 604.892,115.7 C602.493,122.895 592.901,137.284 585.707,144.478 C576.114,156.469 547.337,185.246 537.744,192.44 C520.057,210.559 486.114,222.768 468.199,230.81 C470.597,233.208 482.587,240.403 492.18,242.801 C511.365,249.995 511.365,249.995 518.559,261.986 C523.355,273.977 525.754,281.171 525.754,295.56 C527.08,328.844 510.109,359.67 496.976,386.688 C514.022,405.883 549.824,405.394 573.716,403.475 Z" id="shapePath1"></path>
                </g>
                <g id="Shape2" transform="translate(413.000000, 122.000000)" fill="#669020">
                    <path d="M0.5,5.5 C1,4.5 3,1 3.5,0.5 C3,1 1,4.5 0.5,5.5" id="shapePath2"></path>
                </g>
                <g id="Shape3"></g>
                <g id="Shape4"></g>
                <g id="Shape5"></g>
            </g>
        </g>
    </g>
</svg>